# xmcd
#
# Track frame offsets: 
#        150
#        21600
#        39085
#        55165
#        71550
#        85565
#        101842
#        119010
#        139552
#        153280
#
# Disc length: 2232 seconds
#
# Revision: 2
# Processed by: cddbd v1.5.2PL0 Copyright (c) Steve Scherf et al.
# Submitted via: ExactAudioCopy v1.1
#
DISCID=7f08b60a
DTITLE=Lee Greenwood - If Only For One Night
DYEAR=1989
DGENRE=Country
TTITLE0=If Only For One Night
TTITLE1=I Go Crazy
TTITLE2=Opinion On Love
TTITLE3=I Love The Way He Left You
TTITLE4=We Fell In Love Anyway
TTITLE5=Any Way The Law Allows
TTITLE6=Comin' Apart At The Dreams
TTITLE7=My Heart Is In The Line
TTITLE8='Til Then
TTITLE9=Home To Alaska
EXTD=
EXTT0=
EXTT1=
EXTT2=
EXTT3=
EXTT4=
EXTT5=
EXTT6=
EXTT7=
EXTT8=
EXTT9=
PLAYORDER=
